<?xml version="1.0" standalone="no"?>
<!DOCTYPE svg PUBLIC "-//W3C//DTD SVG 20010904//EN"
 "http://www.w3.org/TR/2001/REC-SVG-20010904/DTD/svg10.dtd">
<svg version="1.0" xmlns="http://www.w3.org/2000/svg"
 width="512.000000pt" height="512.000000pt" viewBox="0 0 512.000000 512.000000"
 preserveAspectRatio="xMidYMid meet">

<g transform="translate(0.000000,512.000000) scale(0.100000,-0.100000)"
fill="#000000" stroke="none">
<path d="M2155 5114 c-465 -47 -858 -194 -1207 -454 -433 -321 -741 -778 -873
-1294 -56 -217 -69 -332 -69 -581 0 -248 13 -361 68 -579 147 -582 526 -1095
1042 -1413 l69 -43 -143 0 c-138 0 -144 -1 -167 -25 -25 -24 -25 -24 -25 -240
l0 -215 -148 0 c-193 0 -182 -11 -182 183 l0 147 68 0 c59 0 72 3 90 23 29 31
28 72 -3 102 -24 25 -27 25 -200 25 -173 0 -176 0 -200 -25 l-25 -24 0 -326 0
-326 25 -25 24 -24 2058 2 2058 3 66 26 c37 14 88 38 114 53 63 37 153 130
188 194 51 94 298 686 318 761 23 88 24 161 4 254 -25 118 -73 192 -238 368
-85 91 -160 162 -174 165 -14 4 -36 1 -51 -5 -24 -11 -29 -9 -80 43 l-55 54
36 109 c91 274 121 462 121 758 0 248 -14 364 -69 580 -112 438 -364 857 -689
1146 -96 85 -124 95 -167 60 -16 -13 -23 -29 -23 -53 0 -32 11 -46 114 -144
207 -198 345 -384 465 -629 236 -477 285 -1023 141 -1545 -171 -617 -631
-1153 -1208 -1407 l-98 -43 -795 0 -796 0 -107 48 c-882 394 -1396 1336 -1256
2302 144 994 953 1762 1958 1859 444 44 926 -64 1309 -292 43 -26 91 -47 106
-47 33 0 71 37 71 69 0 40 -19 60 -114 116 -241 142 -540 246 -831 290 -104
16 -433 28 -520 19z m2235 -4038 c230 -241 279 -300 265 -314 -3 -4 -268 -8
-588 -10 l-582 -3 110 72 c189 123 345 255 475 403 45 53 84 96 85 96 0 0 106
-110 235 -244z m329 -573 c-54 -125 -101 -213 -114 -213 -3 0 -5 69 -5 153 l0
153 83 20 c45 12 85 22 89 22 3 1 -20 -60 -53 -135z m-3269 -68 l0 -165 -225
0 -225 0 0 165 0 165 225 0 225 0 0 -165z m600 0 l0 -165 -225 0 -225 0 0 165
0 165 225 0 225 0 0 -165z m600 0 l0 -165 -225 0 -225 0 0 165 0 165 225 0
225 0 0 -165z m600 0 l0 -165 -225 0 -225 0 0 165 0 165 225 0 225 0 0 -165z
m600 0 l0 -165 -225 0 -225 0 0 165 0 165 225 0 225 0 0 -165z m600 0 l0 -165
-225 0 -225 0 0 165 0 165 225 0 225 0 0 -165z"/>
<path d="M2125 4805 c-317 -45 -540 -168 -638 -350 -18 -33 -22 -57 -22 -135
0 -91 2 -99 41 -180 125 -259 420 -527 667 -605 101 -32 216 -34 313 -4 250
76 547 343 677 608 40 83 42 90 42 181 0 86 -3 100 -29 148 -140 252 -603 401
-1051 337z m493 -164 c157 -34 285 -94 365 -170 38 -36 73 -89 64 -98 -3 -2
-32 7 -64 21 -87 36 -244 81 -358 102 -139 25 -440 25 -580 0 -107 -19 -290
-71 -369 -106 -27 -11 -51 -19 -53 -16 -9 9 28 64 69 102 103 95 272 159 498
188 81 10 337 -4 428 -23z m-24 -298 c140 -21 316 -74 316 -95 0 -22 -107
-163 -179 -236 -89 -90 -182 -160 -267 -199 -47 -22 -74 -28 -130 -28 -61 0
-80 5 -145 37 -95 47 -219 147 -298 240 -66 78 -131 170 -131 186 0 32 281 99
480 116 73 6 248 -4 354 -21z"/>
<path d="M936 4090 c-85 -30 -161 -82 -242 -165 -119 -123 -224 -303 -289
-499 -59 -177 -70 -250 -70 -456 1 -174 3 -190 28 -267 51 -152 146 -256 260
-284 101 -25 290 6 434 71 63 29 79 51 71 95 -2 14 13 28 56 52 59 34 60 34
91 17 44 -23 70 -14 150 54 257 215 308 449 176 811 -88 240 -268 483 -414
558 -72 36 -170 41 -251 13z m108 -142 c-4 -7 -35 -46 -69 -88 -170 -211 -300
-501 -351 -785 -13 -72 -18 -153 -18 -292 l-1 -192 -23 22 c-34 32 -70 106
-88 184 -25 105 -14 335 21 472 85 326 268 600 452 671 56 22 88 25 77 8z
m166 -273 c146 -213 219 -453 175 -584 -33 -100 -167 -219 -344 -305 -94 -46
-134 -55 -146 -36 -4 6 -10 61 -15 123 -15 207 14 439 82 642 37 110 59 153
111 223 l40 53 23 -22 c13 -12 46 -55 74 -94z"/>
<path d="M3540 4101 c-145 -47 -313 -235 -425 -474 -82 -176 -115 -305 -115
-451 0 -165 48 -274 180 -406 259 -261 723 -428 921 -332 92 44 163 137 206
267 25 75 27 92 28 265 0 142 -4 205 -18 270 -80 375 -290 706 -521 821 -72
36 -96 42 -158 45 -40 2 -84 0 -98 -5z m196 -176 c29 -14 82 -56 120 -93 199
-197 334 -543 334 -856 0 -173 -37 -303 -104 -365 l-25 -24 6 119 c21 418
-130 869 -394 1181 -29 34 -53 65 -53 69 0 12 63 -6 116 -31z m-92 -255 c132
-196 222 -429 256 -664 14 -93 18 -301 7 -312 -12 -12 -153 33 -256 82 -129
62 -218 122 -289 198 -93 100 -112 186 -73 338 37 143 134 332 222 432 l43 48
23 -28 c13 -16 43 -58 67 -94z"/>
<path d="M2256 2995 c-49 -17 -103 -68 -127 -120 -66 -141 48 -315 206 -315
119 0 225 106 225 225 0 60 -22 110 -69 156 -66 67 -148 85 -235 54z"/>
<path d="M1340 2311 c-247 -27 -483 -113 -584 -215 -115 -114 -124 -293 -27
-492 116 -238 345 -454 633 -598 253 -127 494 -156 655 -80 147 70 204 196
204 454 1 408 -157 760 -387 867 -120 55 -324 82 -494 64z m362 -309 c41 -20
79 -47 98 -71 66 -85 124 -253 137 -398 5 -63 4 -73 -11 -79 -34 -13 -226 87
-379 196 -78 56 -312 288 -322 319 -16 52 57 71 270 68 137 -2 143 -3 207 -35z
m-664 -367 c223 -256 541 -448 881 -534 l75 -18 -33 -17 c-258 -134 -844 169
-1071 553 -59 101 -91 225 -74 288 5 19 16 8 74 -80 38 -56 104 -143 148 -192z"/>
<path d="M3067 2310 c-73 -9 -193 -42 -242 -67 -224 -114 -377 -462 -377 -858
1 -202 31 -311 108 -390 147 -151 444 -145 765 15 259 130 512 373 619 594 87
181 91 334 10 451 -94 136 -389 245 -700 259 -63 2 -146 1 -183 -4z m406 -304
c54 -14 121 -35 149 -48 l51 -23 -76 -101 c-86 -115 -234 -259 -335 -328 -103
-70 -347 -152 -476 -158 -69 -4 -73 5 -59 144 26 253 102 432 211 495 77 46
123 53 287 49 120 -3 170 -9 248 -30z m379 -198 c-61 -326 -525 -715 -917
-767 -89 -12 -173 -3 -226 25 l-33 16 93 24 c417 108 800 385 1024 741 l52 82
9 -30 c6 -20 5 -52 -2 -91z"/>
</g>
</svg>
